<svg width="123" height="80" viewBox="0 0 123 80" fill="none" xmlns="http://www.w3.org/2000/svg">
<g clip-path="url(#clip0_454_1573)">
<path d="M110.04 5.75317C110.341 7.48926 110.981 9.11792 111.025 10.8277C111.06 13.2945 110.869 15.8329 110.163 18.3187C105.941 33.661 96.9345 46.856 82.008 55.893C66.7423 65.0374 50.1482 66.8458 33.9216 60.7811C25.7518 57.7667 18.8236 53.1739 12.809 47.5377C11.7275 46.4797 10.677 45.5196 8.78217 43.8574C8.21176 47.1623 7.76344 49.6744 7.34614 52.2844C6.97596 52.2939 6.63678 52.4013 6.15355 52.4467C5.82342 51.7971 5.26717 51.2192 5.16315 50.498C4.41693 46.9637 3.78377 43.3936 3.15061 39.8235C2.77653 37.4642 2.25838 35.0427 4.77467 33.1684C7.373 31.1604 10.3254 31.8413 12.7745 32.897C16.1191 34.4233 19.3305 36.3149 22.429 38.2423C23.0673 38.6865 22.9562 39.9067 23.2353 40.7879C22.2177 41.1102 21.0672 41.7978 20.2648 41.621C17.8266 40.9927 15.6346 39.9633 13.2165 39.0055C13.1965 39.335 13.0324 39.6025 13.1765 39.6646C28.8172 58.4117 50.9686 65.5086 76.0321 55.0924C77.2447 54.6006 78.4263 54.0109 79.5459 53.2254C95.3239 42.9491 105.153 29.6014 108.426 12.8357C108.855 10.6532 108.625 8.35591 108.652 6.08496C109.104 5.94172 109.587 5.89641 110.04 5.75317Z" fill="#12D28D"/>
</g>
<defs>
<clipPath id="clip0_454_1573">
<rect width="113.516" height="47.082" fill="white" transform="translate(122.434 44.8845) rotate(162.425)"/>
</clipPath>
</defs>
</svg>
