<svg width="124" height="17" viewBox="0 0 124 17" fill="none" xmlns="http://www.w3.org/2000/svg">
<g clip-path="url(#clip0_623_1462)">
<path d="M116.555 7.20001C117.861 7.20001 119.001 7.29334 119.975 7.48001C120.961 7.65334 121.781 8.03334 122.435 8.62001C123.101 9.20668 123.435 10.06 123.435 11.18C123.435 13.2467 122.515 14.6467 120.675 15.38C118.848 16.1 116.795 16.46 114.515 16.46C112.248 16.46 110.148 16.0933 108.215 15.36C106.281 14.6133 105.315 13.2 105.315 11.12L110.415 11.1C110.415 12.02 110.828 12.6067 111.655 12.86C112.495 13.1 113.475 13.22 114.595 13.22C115.648 13.22 116.548 13.0667 117.295 12.76C118.055 12.4533 118.435 11.9533 118.435 11.26V11.24C118.435 10.8533 118.201 10.5667 117.735 10.38C117.268 10.1933 116.768 10.08 116.235 10.04C115.701 10 115.061 9.97334 114.315 9.96001H112.815C111.375 9.96001 110.121 9.87334 109.055 9.70001C108.001 9.51334 107.115 9.11334 106.395 8.50001C105.675 7.88668 105.315 6.98001 105.315 5.78001C105.315 3.70001 106.248 2.34668 108.115 1.72001C109.995 1.08001 112.128 0.76001 114.515 0.76001C116.755 0.76001 118.801 1.12668 120.655 1.86001C122.508 2.59334 123.435 4.00668 123.435 6.10001H118.415C118.415 5.43334 118.035 4.94001 117.275 4.62001C116.528 4.28668 115.615 4.10001 114.535 4.06001C113.375 4.06001 112.395 4.19334 111.595 4.46001C110.795 4.72668 110.395 5.14668 110.395 5.72001C110.395 6.32001 110.801 6.72001 111.615 6.92001C112.428 7.12001 113.348 7.22001 114.375 7.22001L116.555 7.20001Z" fill="#525252"/>
<path d="M89.6882 16H84.7482V1.19995L89.6882 16ZM103.648 16H98.7282H103.648ZM98.7282 10.26V1.19995H103.648V16H98.7282L89.6882 6.93995V16H84.7482V1.19995H89.6882L98.7282 10.26Z" fill="#525252"/>
<path d="M83.916 16H78.936L77.556 13.46H69.176L67.796 16H62.816L70.836 1.19995H75.896L83.916 16ZM73.376 5.71995L70.976 10.12H75.756L73.376 5.71995Z" fill="#525252"/>
<path d="M61.9631 1.19995V16H57.0431V9.31995L53.7831 16H49.2431L45.7631 9.23995V16H40.8231V1.19995H46.4631L51.5031 11.38L56.4631 1.19995H61.9631Z" fill="#525252"/>
<path d="M33.8352 1.19995H38.8752V8.77995C38.8752 10.22 38.4752 11.52 37.6752 12.68C36.8752 13.84 35.7952 14.7533 34.4352 15.42C33.0752 16.0733 31.5885 16.4 29.9752 16.4C28.2418 16.4 26.6685 16.0733 25.2552 15.42C23.8418 14.7666 22.7218 13.8666 21.8952 12.72C21.0818 11.56 20.6685 10.26 20.6552 8.81995V1.19995H25.7752V8.81995C25.7752 10.0333 26.1885 10.9266 27.0152 11.5C27.8552 12.0733 28.8485 12.36 29.9952 12.36C30.5952 12.36 31.1885 12.2466 31.7752 12.02C32.3618 11.78 32.8485 11.3933 33.2352 10.86C33.6352 10.3266 33.8352 9.64662 33.8352 8.81995V1.19995Z" fill="#525252"/>
<path d="M5.90057 6.45995H13.8006V1.19995H18.7206V16H13.8006V10.34H5.90057V16H0.960571V1.19995H5.90057V6.45995Z" fill="#525252"/>
</g>
<defs>
<clipPath id="clip0_623_1462">
<rect width="122.474" height="15.7" fill="white" transform="translate(0.960571 0.76001)"/>
</clipPath>
</defs>
</svg>
